<?xml version="1.0" standalone="no"?>
<!DOCTYPE svg PUBLIC "-//W3C//DTD SVG 20010904//EN"
 "http://www.w3.org/TR/2001/REC-SVG-20010904/DTD/svg10.dtd">
<svg version="1.0" xmlns="http://www.w3.org/2000/svg"
 width="404.000000pt" height="428.000000pt" viewBox="0 0 404.000000 428.000000"
 preserveAspectRatio="xMidYMid meet">

<g transform="translate(0.000000,428.000000) scale(0.100000,-0.100000)"
fill="#000000" stroke="none">
<path d="M1830 4145 l0 -55 -42 0 c-24 0 -80 -3 -125 -7 l-83 -6 0 -48 0 -49
-60 0 -60 0 0 -60 0 -60 -55 0 -55 0 0 -120 0 -120 -65 0 -65 0 0 -115 c0 -85
-3 -115 -12 -116 -7 -1 -33 -2 -58 -3 l-45 -1 -3 -352 -2 -353 60 0 60 0 0
-55 0 -55 -60 0 -60 0 0 -115 0 -115 -58 0 c-53 0 -58 -2 -58 -22 0 -13 -1
-62 -2 -110 l-2 -88 -110 0 -109 0 -3 58 -3 57 -250 0 -250 0 3 -52 3 -52 -63
-3 -63 -3 0 -67 1 -68 -58 0 -58 0 2 -357 3 -358 57 -3 58 -3 -3 -117 -2 -117
57 -3 57 -3 3 -57 3 -57 62 -3 63 -3 0 -54 0 -55 64 0 c73 0 76 -3 76 -81 l0
-49 54 0 54 0 7 -55 6 -55 115 0 114 0 0 -37 c0 -83 -1 -82 124 -85 l111 -3 3
-57 3 -57 117 -3 117 -3 -3 -52 -4 -53 595 0 595 0 6 23 c3 12 6 37 6 55 l0
32 113 1 c61 0 194 0 294 -1 101 -1 208 2 238 5 l55 7 0 54 0 54 50 0 50 0 0
59 c0 68 9 75 83 69 l42 -3 3 118 3 117 54 0 55 0 0 175 0 174 -117 3 -118 3
-3 57 -3 57 -107 3 -107 3 -3 52 c-3 48 -1 53 20 58 13 2 39 4 58 2 l35 -2 3
184 2 184 -53 -6 -54 -5 -9 121 -9 122 -52 3 -53 3 0 110 0 109 -59 0 c-38 0
-60 4 -63 13 -3 6 -3 58 0 113 l4 102 252 7 c138 4 319 6 401 4 l150 -4 3 57
3 57 52 3 52 3 3 58 c2 45 6 57 20 58 9 0 35 1 57 2 l40 2 0 115 0 115 -57 -3
-58 -3 0 60 0 60 -97 3 -98 3 -3 58 -3 57 -179 0 -180 0 0 235 0 235 -60 0
-60 0 0 120 0 120 -60 0 -60 0 0 60 0 60 -60 0 -60 0 0 55 0 55 -145 0 -145 0
0 55 0 55 -385 0 -385 0 0 -55z m760 -119 c0 -30 5 -57 10 -59 6 -3 5 -4 -2
-3 -8 2 -14 22 -16 54 l-3 51 -249 1 -248 0 15 -31 c18 -37 49 -36 46 1 -3 25
-3 25 14 -3 11 -16 24 -25 32 -22 11 4 11 2 2 -9 -7 -8 -8 -16 -4 -18 4 -3 3
-3 -4 -2 -6 2 -13 0 -15 -4 -2 -4 -16 -5 -33 -1 l-30 7 33 1 c17 0 32 5 32 9
0 5 -18 7 -40 6 -22 -1 -37 2 -34 7 3 5 1 9 -5 9 -6 0 -7 7 -4 17 4 11 3 14
-5 9 -7 -4 -10 -21 -8 -39 l4 -32 -59 -3 -59 -3 0 56 0 55 315 0 315 0 0 -54z
m-333 21 c-1 -5 4 -12 12 -15 8 -2 11 0 7 6 -3 6 -1 14 5 18 8 4 9 3 5 -4 -4
-7 -3 -12 3 -12 5 0 12 4 15 9 8 13 51 7 49 -7 -2 -7 2 -12 7 -12 6 0 10 7 10
16 0 15 5 15 78 4 1 0 2 -7 2 -15 0 -8 5 -15 11 -15 6 0 17 -7 25 -15 9 -9 11
-15 4 -15 -6 0 -9 -3 -7 -7 3 -5 -18 -7 -45 -6 -58 2 -73 16 -51 50 8 13 11
23 5 23 -5 0 -13 -7 -16 -16 -4 -10 -14 -14 -26 -11 -11 3 -20 1 -20 -4 0 -4
-6 -6 -14 -3 -9 3 -13 -1 -13 -12 2 -13 -8 -20 -32 -25 -35 -7 -61 -3 -61 11
0 4 21 6 48 4 26 -1 41 0 34 3 -10 4 -10 8 0 21 11 14 10 15 -7 8 -11 -5 -29
-10 -40 -12 -20 -4 -20 -4 0 4 19 9 19 9 -2 20 -28 15 -36 15 -27 0 6 -10 4
-10 -7 0 -7 6 -17 12 -22 12 -4 0 -5 -6 -1 -12 5 -9 2 -9 -9 1 -9 7 -17 15
-17 16 0 1 22 2 49 2 27 -1 49 -5 48 -10z m239 -24 c-3 -4 -6 -1 -6 6 0 7 -4
9 -10 6 -11 -7 -14 8 -3 19 4 3 11 -1 16 -9 5 -9 6 -19 3 -22z m62 17 c7 -12
8 -20 2 -20 -5 0 -10 4 -10 9 0 6 -9 8 -20 6 -22 -4 -28 10 -7 18 20 9 22 8
35 -13z m-15 -45 c10 -14 13 -25 7 -25 -5 0 -10 4 -10 10 0 5 -6 7 -14 4 -10
-4 -14 1 -13 15 2 27 8 26 30 -4z m-185 -3 c2 -7 -5 -12 -17 -12 -14 0 -19 5
-14 15 6 17 25 15 31 -3z m-51 -41 c-13 -5 -9 -11 18 -29 32 -20 35 -20 35 -5
1 17 1 17 11 0 6 -9 14 -15 18 -13 4 3 8 -1 8 -9 0 -8 -7 -17 -14 -19 -8 -3
-11 -2 -8 3 3 5 1 12 -5 16 -5 3 -10 1 -10 -6 0 -7 -7 -4 -15 7 -13 16 -16 17
-25 4 -9 -13 -14 -7 -11 12 0 5 -8 13 -18 20 -18 11 -18 13 -3 24 9 7 21 10
26 6 5 -3 2 -8 -7 -11z m574 -40 c-1 -30 -6 -49 -10 -42 -4 6 -21 14 -37 17
-28 5 -28 4 -9 -10 20 -15 20 -15 -2 -16 -26 0 -35 30 -13 48 9 8 9 11 1 6
-10 -5 -11 -1 -6 15 6 19 3 21 -34 19 -26 -1 -38 -5 -34 -12 4 -6 -1 -5 -10 3
-10 8 -36 15 -58 17 -88 7 -44 12 83 11 l133 -2 -4 -54z m-526 39 c-3 -5 -10
-10 -16 -10 -5 0 -9 5 -9 10 0 6 7 10 16 10 8 0 12 -4 9 -10z m32 -22 c-3 -7
-5 -2 -5 12 0 14 2 19 5 13 2 -7 2 -19 0 -25z m175 10 c-2 -10 -6 -18 -7 -18
-1 0 -5 8 -7 18 -3 11 0 19 7 19 7 0 10 -8 7 -19z m-132 3 c0 -6 -4 -12 -8
-15 -5 -3 -9 1 -9 9 0 8 4 15 9 15 4 0 8 -4 8 -9z m46 -26 c-9 -7 -13 -15 -9
-19 9 -9 -18 -27 -29 -20 -5 3 -1 12 7 21 13 12 13 18 3 32 -10 13 -10 14 2 4
21 -19 34 -16 19 5 -13 16 -12 16 4 3 17 -13 17 -16 3 -26z m224 13 c0 6 5 12
11 12 8 0 8 -5 -1 -15 -13 -16 -30 -11 -30 8 0 7 4 6 10 -3 6 -10 10 -11 10
-2z m95 4 c-6 -4 -10 -19 -10 -35 1 -15 -3 -33 -8 -40 -6 -8 -7 -6 -3 6 3 9 1
17 -4 17 -6 0 -10 -5 -10 -11 0 -7 -29 -9 -85 -7 -50 2 -84 7 -83 13 2 6 8 8
13 6 23 -9 95 -11 95 -2 0 5 -9 7 -20 4 -11 -3 -20 -1 -20 3 0 5 19 10 42 10
38 2 40 1 23 -12 -17 -12 -17 -14 -2 -14 21 0 60 37 47 45 -4 3 -10 1 -12 -5
-2 -6 -8 -6 -18 0 -13 8 -12 10 3 10 9 0 17 5 17 10 0 6 10 10 23 10 12 0 17
-4 12 -8z m-189 -11 c9 8 21 8 41 1 17 -6 21 -11 11 -11 -10 -1 -16 -7 -14
-13 1 -7 1 -10 -1 -6 -2 4 -12 4 -21 1 -13 -4 -14 -3 -3 5 8 6 9 12 3 16 -6 3
-13 2 -17 -4 -8 -13 -25 -3 -24 13 0 8 2 8 6 -1 4 -10 8 -10 19 -1z m-336 -44
c0 -5 7 -3 17 4 14 12 16 12 11 -1 -2 -8 -14 -15 -25 -16 -14 -1 -20 3 -16 12
3 8 1 14 -4 14 -5 0 -10 7 -10 16 0 14 2 14 14 -2 7 -10 13 -22 13 -27z m240
39 c0 -2 -8 -10 -17 -17 -16 -13 -17 -12 -4 4 13 16 21 21 21 13z m35 -16 c-3
-5 2 -10 12 -11 16 0 16 -1 -2 -8 l-20 -8 20 -5 c18 -5 18 -6 -2 -7 -16 -1
-23 5 -23 17 0 10 3 22 7 25 10 10 15 8 8 -3z m-28 -22 c2 -17 0 -19 -7 -8 -5
8 -6 18 -4 22 8 12 10 10 11 -14z m-167 -8 c12 -7 10 -9 -8 -7 -12 0 -22 5
-22 9 0 11 12 10 30 -2z m-400 -76 l0 -64 -60 0 -60 0 0 58 c0 32 2 61 5 63 2
3 29 5 60 6 l55 1 0 -64z m1050 1 l0 -66 -97 7 c-54 3 -104 11 -112 18 -11 8
-13 8 -7 -1 4 -7 2 -13 -3 -13 -6 0 -11 20 -11 45 0 25 4 45 10 45 5 0 6 -7 3
-17 -4 -11 -3 -14 5 -9 7 4 12 1 12 -9 0 -10 -5 -13 -12 -9 -8 4 -10 3 -5 -2
5 -5 13 -10 18 -10 22 -3 23 -5 9 -14 -11 -8 -2 -10 35 -9 28 0 71 -2 96 -6
l46 -7 2 51 1 51 -52 2 -53 1 55 7 c30 4 56 7 58 8 1 1 2 -27 2 -63z m-176 24
c-2 -4 0 -10 6 -14 12 -7 4 -25 -12 -25 -5 0 -8 7 -5 15 4 8 2 17 -3 20 -5 3
-6 13 -3 21 4 12 8 13 14 3 4 -7 6 -16 3 -20z m153 -21 c-3 -7 -5 -2 -5 12 0
14 2 19 5 13 2 -7 2 -19 0 -25z m-73 6 c3 -8 2 -12 -4 -9 -6 3 -10 10 -10 16
0 14 7 11 14 -7z m-44 -24 c0 -11 -7 -20 -15 -20 -13 0 -13 3 -3 20 7 11 14
20 15 20 2 0 3 -9 3 -20z m87 0 c-1 -11 -5 -20 -9 -20 -11 0 -20 19 -13 30 11
17 24 11 22 -10z m-869 -457 l3 -53 -60 0 -61 0 0 55 0 56 58 -3 57 -3 3 -52z
m924 -103 c-1 -25 1 -50 6 -57 4 -6 32 -13 62 -15 l55 -3 3 -57 3 -58 239 0
239 0 3 -62 3 -61 95 -1 95 -1 3 -57 3 -58 -61 0 -61 0 3 -52 3 -53 -550 -1
c-302 -1 -538 1 -523 3 22 3 27 10 30 41 6 69 6 69 -90 70 -161 1 -145 -6
-139 57 5 62 1 65 -71 62 l-42 -2 0 57 0 57 57 3 57 3 1 55 0 55 58 3 57 3 0
59 0 59 232 -2 232 -2 -2 -45z m-417 -530 c3 -5 -3 -10 -14 -10 -12 0 -21 5
-21 10 0 6 6 10 14 10 8 0 18 -4 21 -10z m-155 -64 c0 -59 -7 -66 -65 -66 -51
0 -60 7 -58 43 1 17 2 42 2 55 1 20 6 22 61 22 l60 0 0 -54z m-2148 -571 l-4
-55 52 0 c36 0 49 3 44 12 -4 7 -3 8 4 4 27 -16 8 -26 -48 -26 l-60 0 0 60 c0
33 3 60 8 60 4 0 5 -25 4 -55z m91 48 c-13 -2 -35 -2 -50 0 -16 2 -5 4 22 4
28 0 40 -2 28 -4z m259 -53 l-4 -60 55 0 c62 0 67 -6 67 -76 l0 -44 -59 0
c-41 0 -59 4 -58 13 0 6 -1 33 -1 60 l-2 47 -58 0 -58 0 -1 60 -1 60 62 0 61
0 -3 -60z m51 53 c-7 -2 -19 -2 -25 0 -7 3 -2 5 12 5 14 0 19 -2 13 -5z m60 0
c-7 -2 -21 -2 -30 0 -10 3 -4 5 12 5 17 0 24 -2 18 -5z m-483 -218 c0 -11 -10
-15 -37 -13 -37 1 -37 1 -5 5 17 2 32 8 32 14 0 5 2 9 5 9 3 0 5 -7 5 -15z
m250 -83 l0 -57 -55 -2 -55 -1 0 59 0 59 55 0 55 0 0 -58z m1428 -4 l-2 -63
-3 53 -4 52 -46 0 -46 0 6 -35 c3 -19 2 -35 -4 -35 -5 0 -9 18 -9 39 l0 40 53
4 c28 2 53 4 55 5 1 1 1 -26 0 -60z m-60 -28 c12 0 29 14 35 30 4 10 6 8 6 -7
1 -13 -5 -23 -11 -23 -9 0 -8 -4 2 -10 11 -7 1 -9 -35 -9 -33 1 -42 3 -28 7
17 5 20 11 13 22 -5 8 -9 24 -9 35 1 12 4 8 10 -12 5 -18 13 -33 17 -33z m19
35 c0 -8 -4 -15 -8 -15 -11 0 -20 16 -12 24 11 11 20 7 20 -9z m-1580 -71 c-3
-3 -12 -4 -19 -1 -8 3 -5 6 6 6 11 1 17 -2 13 -5z m1201 -471 c-10 -2 -28 -2
-40 0 -13 2 -5 4 17 4 22 1 32 -1 23 -4z m59 1 c-3 -3 -12 -4 -19 -1 -8 3 -5
6 6 6 11 1 17 -2 13 -5z m66 -1 c-7 -2 -19 -2 -25 0 -7 3 -2 5 12 5 14 0 19
-2 13 -5z m177 -10 c0 -12 -3 -14 -8 -6 -4 7 -39 13 -82 16 l-75 3 83 2 c72 2
82 0 82 -15z m-3 -75 c-2 -13 -4 -5 -4 17 -1 22 1 32 4 23 2 -10 2 -28 0 -40z
m129 -60 c1 -15 -3 -25 -8 -22 -5 3 -7 13 -6 22 2 14 -8 18 -52 23 l-55 6 60
-1 c58 -1 60 -2 61 -28z m-1 -48 c3 -5 1 -10 -4 -10 -6 0 -11 5 -11 10 0 6 2
10 4 10 3 0 8 -4 11 -10z m-27 -27 c-15 -2 -42 -2 -60 0 -18 2 -6 4 27 4 33 0
48 -2 33 -4z m-101 -205 c-3 -8 -6 -5 -6 6 -1 11 2 17 5 13 3 -3 4 -12 1 -19z"/>
<path d="M1985 4060 c17 -7 17 -9 3 -9 -14 -1 -18 -10 -18 -36 0 -30 3 -35 23
-34 16 1 18 2 5 6 -19 5 -23 20 -9 42 6 9 11 10 15 2 4 -6 2 -11 -5 -11 -7 0
-10 -2 -7 -5 9 -10 38 7 38 22 0 8 -4 11 -10 8 -6 -3 -7 1 -4 9 5 12 -1 16
-22 15 -25 0 -26 -1 -9 -9z"/>
<path d="M2030 4060 c0 -5 4 -10 8 -10 4 0 8 -9 9 -20 1 -11 -2 -18 -7 -15 -4
3 -11 -2 -14 -11 -9 -22 -8 -23 15 -21 17 1 20 7 17 29 -3 17 1 29 9 33 8 2
11 9 8 15 -8 13 -45 13 -45 0z"/>
<path d="M2305 4040 c-3 -5 -1 -10 4 -10 6 0 11 5 11 10 0 6 -2 10 -4 10 -3 0
-8 -4 -11 -10z"/>
<path d="M2401 4028 c-21 -21 -21 -23 -4 -35 12 -10 20 -10 27 -2 8 8 7 13 -1
16 -7 3 -13 10 -13 16 1 7 8 3 18 -8 9 -11 26 -21 37 -22 l20 -2 -20 15 c-11
8 -25 21 -32 30 -10 13 -14 12 -32 -8z"/>
<path d="M2856 3935 c4 -8 8 -15 10 -15 2 0 4 7 4 15 0 8 -4 15 -10 15 -5 0
-7 -7 -4 -15z"/>
<path d="M1860 3830 c0 -5 7 -6 17 -3 12 5 14 3 8 -7 -5 -9 -4 -11 3 -6 19 11
14 26 -8 26 -11 0 -20 -4 -20 -10z"/>
<path d="M1896 3793 c-6 -14 -5 -15 5 -6 7 7 10 15 7 18 -3 3 -9 -2 -12 -12z"/>
<path d="M1849 3783 c-13 -16 -12 -17 4 -4 16 13 21 21 13 21 -2 0 -10 -8 -17
-17z"/>
<path d="M1890 3760 c-9 -6 -10 -10 -3 -10 6 0 15 5 18 10 8 12 4 12 -15 0z"/>
<path d="M2669 3156 c-1 -4 -1 -15 -1 -26 0 -11 0 -37 1 -59 l1 -38 55 -2 56
-1 -3 61 -3 62 -52 4 c-29 2 -53 2 -54 -1z"/>
<path d="M2400 2654 c0 -8 5 -12 10 -9 6 4 8 11 5 16 -9 14 -15 11 -15 -7z"/>
<path d="M2320 2641 c0 -6 4 -13 10 -16 6 -3 7 1 4 9 -7 18 -14 21 -14 7z"/>
<path d="M2395 2622 c-5 -4 -16 -15 -24 -25 -12 -15 -12 -17 3 -11 9 3 16 11
16 18 0 6 5 4 10 -4 8 -12 10 -11 10 8 0 24 -1 25 -15 14z"/>
</g>
</svg>
